<svg xmlns="http://www.w3.org/2000/svg" xmlns:xlink="http://www.w3.org/1999/xlink" id="Ebene_1" width="20" height="20" x="0" y="0" enable-background="new 0 0 20 20" version="1.1" viewBox="0 0 20 20" xml:space="preserve"><g><linearGradient id="SVGID_1_" x1="10.001" x2="10.001" y1="16.973" y2="3.028" gradientUnits="userSpaceOnUse"><stop offset="0" stop-color="#B0B0B0" stop-opacity=".5"/><stop offset=".398" stop-color="#D5D4D4" stop-opacity=".301"/><stop offset=".787" stop-color="#F4F3F4" stop-opacity=".106"/><stop offset="1" stop-color="#FFF" stop-opacity="0"/></linearGradient><path fill="url(#SVGID_1_)" d="M3.027,15.973c0,0.553,0.448,1,1,1h11.945c0.553,0,1-0.447,1-1V4.027c0-0.552-0.447-1-1-1H4.027 c-0.552,0-1,0.448-1,1V15.973z"/><path fill="none" stroke="#B0B0B0" stroke-miterlimit="10" stroke-width=".75" d="M3.027,15.973c0,0.553,0.448,1,1,1h11.945 c0.553,0,1-0.447,1-1V4.027c0-0.552-0.447-1-1-1H4.027c-0.552,0-1,0.448-1,1V15.973z"/></g></svg>