<svg xmlns="http://www.w3.org/2000/svg" xmlns:xlink="http://www.w3.org/1999/xlink" id="Ebene_1" width="20" height="20" x="0" y="0" enable-background="new 0 0 20 20" version="1.1" viewBox="0 0 20 20" xml:space="preserve"><path fill="#FFF" stroke="#FFF" stroke-miterlimit="10" d="M17.891,10.875c0,1.188-3.533,5.078-7.891,5.078	c-4.358,0-7.891-3.891-7.891-5.078S5.642,5.797,10,5.797C14.357,5.797,17.891,9.688,17.891,10.875z M14.224,10.875	c0-2.333-1.891-4.224-4.223-4.224s-4.223,1.891-4.223,4.224c0,2.332,1.891,4.224,4.223,4.224S14.224,13.207,14.224,10.875z"/><circle cx="10" cy="10.875" r="1.531" fill="#FFF" stroke="#FFF" stroke-miterlimit="10"/><path fill="#727272" stroke="#727272" stroke-miterlimit="10" d="M17.891,10c0,1.188-3.533,5.078-7.891,5.078	c-4.358,0-7.891-3.891-7.891-5.078S5.642,4.922,10,4.922C14.357,4.922,17.891,8.813,17.891,10z M14.224,10	c0-2.333-1.891-4.224-4.223-4.224S5.777,7.667,5.777,10c0,2.332,1.891,4.224,4.223,4.224S14.224,12.332,14.224,10z"/><circle cx="10" cy="10" r="1.531" fill="#727272" stroke="#727272" stroke-miterlimit="10"/><line x1="2.254" x2="18.035" y1="16.828" y2="5.797" fill="none" stroke="#FFF" stroke-miterlimit="10" stroke-width="1.5"/><line x1="2.109" x2="17.891" y1="15.953" y2="4.922" fill="none" stroke="#727272" stroke-miterlimit="10" stroke-width="1.5"/><rect width="20" height="20" fill="none"/></svg>