<svg xmlns="http://www.w3.org/2000/svg" xmlns:xlink="http://www.w3.org/1999/xlink" id="Ebene_1" width="128" height="128" x="0" y="0" enable-background="new 0 0 128 128" version="1.1" viewBox="0 0 128 128" xml:space="preserve"><path fill="#0082C9" d="M-28-48h88c11.047,0,20,8.957,20,20v88c0,11.047-8.953,20-20,20h-88c-11.045,0-20-8.953-20-20v-88	C-48-39.043-39.045-48-28-48z"/><path fill="#FFF" stroke="#FFF" stroke-miterlimit="10" stroke-width=".75" d="M7.832,61.988c0,0,0.992-2.738,2.152-5.23	C28.75,16.34,52.859-10.28,63.555-22.364c8.656-9.789,5.271-8.248,1.433-5.752c-15.64,10.172-44.91,42.86-56.095,54.186	c-2.072,2.086-6.764,7.016-7.824,7.016c-1.197,0-5.191-1.844-7.477-3.188c-8.729-5.117-17.077-10.105-22.313-11.994	c-11.156-4.012-8-0.201-7.363,1.076c1.992,3.984,28.932,25.582,37.856,35.777C4.535,57.914,7.832,61.988,7.832,61.988z"/></svg>