<svg xmlns="http://www.w3.org/2000/svg" xmlns:xlink="http://www.w3.org/1999/xlink" id="Ebene_1" width="32" height="32" x="0" y="0" enable-background="new 0 0 32 32" version="1.1" viewBox="0 0 32 32" xml:space="preserve"><path fill="#0082C9" d="M5,0h22c2.762,0,5,2.239,5,5v22c0,2.762-2.238,5-5,5H5c-2.761,0-5-2.238-5-5V5C0,2.239,2.239,0,5,0z"/><path fill="#FFF" stroke="#FFF" stroke-miterlimit="10" stroke-width=".75" d="M13.958,27.497c0,0,0.248-0.685,0.538-1.308	C19.188,16.085,25.215,9.43,27.889,6.409c2.164-2.447,1.317-2.062,0.358-1.438c-3.91,2.543-11.228,10.715-14.024,13.546	c-0.518,0.521-1.691,1.754-1.956,1.754c-0.299,0-1.298-0.461-1.869-0.797c-2.182-1.279-4.269-2.527-5.578-2.999	c-2.789-1.003-2-0.05-1.841,0.269c0.498,0.996,7.233,6.396,9.464,8.944C13.134,26.479,13.958,27.497,13.958,27.497z"/></svg>