<svg xmlns="http://www.w3.org/2000/svg" xmlns:svg="http://www.w3.org/2000/svg" xmlns:xlink="http://www.w3.org/1999/xlink" id="svg3212" width="32" height="32" x="0" y="0" enable-background="new 0 0 32 32" version="1.1" viewBox="0 0 32 32" xml:space="preserve"><path fill="#FFF" stroke="#FFF" stroke-miterlimit="10" stroke-width=".75" d="M14.383,26.764c0,0,0.259-0.716,0.563-1.367	C19.854,14.827,26.158,7.867,28.954,4.707c2.264-2.559,1.378-2.156,0.375-1.503c-4.09,2.659-11.742,11.206-14.668,14.169	c-0.542,0.545-1.769,1.833-2.045,1.833c-0.313,0-1.358-0.481-1.955-0.833c-2.282-1.338-4.464-2.643-5.834-3.136	c-2.917-1.049-2.092-0.052-1.926,0.281c0.521,1.042,7.566,6.689,9.899,9.356C13.522,25.698,14.383,26.764,14.383,26.764z"/></svg>